<svg width="46" height="40" viewBox="0 0 46 40" fill="none" xmlns="http://www.w3.org/2000/svg">
<path d="M5.60566 36.2731C6.44755 36.2731 7.04302 36.1909 7.3921 36.0267C7.74116 35.8624 7.91569 35.5441 7.91569 35.0718C7.91569 34.7022 7.68983 34.384 7.23809 34.1171C6.78636 33.8295 6.09847 33.5113 5.17447 33.1622C4.45579 32.8953 3.79872 32.6182 3.20325 32.3306C2.62829 32.0431 2.1355 31.7044 1.72482 31.3141C1.31415 30.9036 0.995879 30.421 0.770009 29.8666C0.54414 29.3122 0.431205 28.6448 0.431205 27.8646C0.431205 26.3451 0.995879 25.1439 2.12523 24.2609C3.25458 23.378 4.80486 22.9365 6.77609 22.9365C7.76169 22.9365 8.70624 23.0289 9.60973 23.2137C10.5132 23.378 11.2319 23.5628 11.7658 23.7681L10.9649 27.3409C10.4311 27.1561 9.84586 26.9918 9.20932 26.8481C8.59331 26.7044 7.89516 26.6326 7.11489 26.6326C5.67754 26.6326 4.95887 27.0329 4.95887 27.8337C4.95887 28.0186 4.98967 28.1829 5.05127 28.3266C5.11287 28.4702 5.23607 28.6141 5.42086 28.7578C5.60566 28.881 5.85207 29.0247 6.16007 29.189C6.48861 29.3327 6.89929 29.497 7.3921 29.6818C8.39823 30.0514 9.22985 30.421 9.88692 30.7906C10.544 31.1397 11.0573 31.5298 11.4269 31.961C11.8171 32.3717 12.084 32.8337 12.2277 33.347C12.392 33.8604 12.4742 34.4558 12.4742 35.1334C12.4742 36.735 11.8684 37.9466 10.6569 38.7679C9.46598 39.5892 7.77196 39.9999 5.57486 39.9999C4.13752 39.9999 2.9363 39.8767 1.97122 39.6303C1.02668 39.3839 0.369604 39.1786 0 39.0143L0.770009 35.2875C1.55029 35.5955 2.3511 35.8419 3.17245 36.0267C3.99379 36.1909 4.80486 36.2731 5.60566 36.2731Z" fill="#8EAF0C"/>
<path d="M26.284 31.3454C26.284 28.3885 25.1957 26.9101 23.0192 26.9101C22.5468 26.9101 22.0745 26.9717 21.6023 27.0949C21.1505 27.2181 20.7809 27.3722 20.4935 27.557V35.9039C20.7193 35.9449 21.0068 35.986 21.3559 36.0271C21.7049 36.0476 22.0849 36.0578 22.4955 36.0578C23.7481 36.0578 24.6926 35.6266 25.3291 34.7642C25.9656 33.9018 26.284 32.7622 26.284 31.3454ZM30.9656 31.4686C30.9656 32.7622 30.7705 33.9326 30.3804 34.9799C30.0108 36.0271 29.4667 36.9202 28.7479 37.6594C28.0293 38.3987 27.1464 38.9736 26.0992 39.3843C25.052 39.7744 23.861 39.9694 22.5264 39.9694C21.9719 39.9694 21.3867 39.9387 20.7707 39.8771C20.1753 39.836 19.5797 39.7744 18.9842 39.6923C18.4093 39.6102 17.8549 39.5177 17.321 39.4151C16.7872 39.2919 16.3149 39.1687 15.9043 39.0455V16.4072L20.4935 15.668V23.7377C21.0068 23.5118 21.5407 23.3372 22.0951 23.214C22.6496 23.0908 23.2449 23.0292 23.8816 23.0292C25.0314 23.0292 26.0479 23.2347 26.9308 23.6452C27.8137 24.0355 28.5529 24.6001 29.1484 25.3393C29.7439 26.0786 30.1956 26.9717 30.5036 28.0189C30.8116 29.0457 30.9656 30.1955 30.9656 31.4686Z" fill="#8EAF0C"/>
<path d="M41.5157 15.668C42.3781 15.668 43.1687 15.7604 43.8874 15.9452C44.606 16.1094 45.1604 16.2737 45.5505 16.4381L44.6574 20.1033C44.2466 19.9184 43.7949 19.785 43.3021 19.7028C42.8298 19.6002 42.3884 19.5488 41.9778 19.5488C41.4234 19.5488 40.951 19.6309 40.5609 19.7952C40.1913 19.9389 39.8936 20.1444 39.6677 20.4113C39.4624 20.6782 39.3083 20.9964 39.2057 21.366C39.1235 21.7356 39.0825 22.1361 39.0825 22.5673V23.3681H44.7497V27.1874H39.0825V39.5691H34.4932V22.5057C34.4932 20.4113 35.0784 18.748 36.2489 17.516C37.4398 16.284 39.1955 15.668 41.5157 15.668Z" fill="#8EAF0C"/>
<path opacity="0.997" fill-rule="evenodd" clip-rule="evenodd" d="M26.4463 0.407469C26.9532 0.271646 27.46 0.135823 27.9669 0C28.0588 0.0230192 28.1378 0.068592 28.2038 0.136712C28.2252 0.216749 28.2467 0.296786 28.2681 0.376823C28.1375 0.661691 27.9881 0.940019 27.8198 1.21179C27.0186 2.80565 26.6249 4.50286 26.6392 6.30339C26.7281 7.46621 26.7051 8.62563 26.5704 9.78174C26.1089 12.4723 24.5091 13.9543 21.7712 14.2274C20.8045 14.3362 19.8745 14.2089 18.9809 13.8455C18.9736 13.8298 18.9611 13.8189 18.9435 13.8126C19.6086 10.9288 20.9143 8.36759 22.861 6.12911C23.2511 5.7272 23.6509 5.33411 24.0605 4.94986C24.1614 4.74508 24.1097 4.58738 23.9051 4.47679C23.7909 4.46394 23.6817 4.48363 23.5778 4.53589C22.0607 5.89945 20.8448 7.4977 19.9301 9.33066C19.2712 10.6732 18.7429 12.0633 18.3454 13.5011C17.5085 12.9633 16.9109 12.2274 16.5528 11.2936C16.4576 10.9379 16.3623 10.5821 16.2669 10.2264C16.0588 8.68685 16.3844 7.26996 17.2439 5.97571C17.9319 4.99093 18.7755 4.15491 19.7745 3.46761C21.0692 2.58569 22.4484 1.86348 23.912 1.30098C24.7525 0.978105 25.5973 0.680271 26.4463 0.407469Z" fill="#111010"/>
<path opacity="0.994" fill-rule="evenodd" clip-rule="evenodd" d="M18.9796 13.8462C18.6841 14.8596 18.5942 15.894 18.7103 16.9494C18.6921 17.0264 18.6574 17.0929 18.6065 17.1488C18.5176 17.1726 18.4286 17.1965 18.3397 17.2202C18.2542 17.1859 18.1753 17.1405 18.1029 17.0835C18.0623 16.9323 18.0219 16.7812 17.9813 16.63C17.954 15.5716 18.075 14.5289 18.3441 13.5018C18.7417 12.064 19.2699 10.6738 19.9288 9.33131C20.8437 7.49834 22.0596 5.90009 23.5766 4.53654C23.6806 4.48427 23.7896 4.46459 23.9039 4.47744C24.1085 4.58804 24.1603 4.74573 24.0592 4.95051C23.6497 5.33475 23.2498 5.72783 22.8597 6.12974C20.9132 8.36823 19.6073 10.9294 18.9423 13.8133C18.9598 13.8196 18.9723 13.8305 18.9796 13.8462Z" fill="#8EAF0C"/>
</svg>
